<svg width="14" height="17" viewBox="0 0 14 17" fill="none" xmlns="http://www.w3.org/2000/svg"><path d="M7.332 3.269a.39.39 0 0 1-.396-.388C6.936 1.38 8.179.164 9.709.164a.39.39 0 0 1 .396.388c0 1.501-1.241 2.717-2.773 2.717m5.787 8.171a.38.38 0 0 1 .116.484c-1.395 2.733-2.508 4.095-3.525 4.095-.473 0-.938-.15-1.392-.442a2.1 2.1 0 0 0-2.19-.046c-.55.322-1.074.488-1.57.488-1.496 0-3.964-4.51-3.964-6.985 0-2.642 1.415-4.657 3.567-4.657q1.52-.001 2.621.443c.311.125.663.116.967-.026.596-.281 1.382-.417 2.356-.417 1.192 0 2.23.582 3.093 1.707a.384.384 0 0 1-.08.544c-.962.708-1.426 1.502-1.426 2.406s.464 1.699 1.427 2.406" fill="#000"/></svg>