<svg width="17" height="17" viewBox="0 0 17 17" fill="none" xmlns="http://www.w3.org/2000/svg"><path d="M16.726 8.109a7.8 7.8 0 0 1-1.048 3.965 7.76 7.76 0 0 1-2.92 2.876 7.9 7.9 0 0 1-3.924 1.069 7.93 7.93 0 0 1-3.941-1.078 7.95 7.95 0 0 1-2.886-2.899A7.9 7.9 0 0 1 .873 8.11c0-1.394.368-2.763 1.066-3.968a7.95 7.95 0 0 1 2.885-2.899A7.93 7.93 0 0 1 8.765.164a7.94 7.94 0 0 1 5.188 1.958.52.52 0 0 1 0 .761l-1.468 1.472a.52.52 0 0 1-.69 0 4.8 4.8 0 0 0-2.961-1.12 4.79 4.79 0 0 0-4.173 2.42 4.87 4.87 0 0 0-.691 2.454 4.84 4.84 0 0 0 2.437 4.175c.739.42 1.576.634 2.426.622a4.8 4.8 0 0 0 2.407-.65 4.96 4.96 0 0 0 2.065-2.437H9.687a.51.51 0 0 1-.512-.522V7.254a.504.504 0 0 1 .512-.513h6.46a.51.51 0 0 1 .511.427q.077.467.068.941" fill="#000"/></svg>